<mxfile host="65bd71144e">
    <diagram id="YyiMmsRfplDPqpUW2X11" name="Page-1">
        <mxGraphModel dx="1050" dy="612" grid="1" gridSize="10" guides="1" tooltips="1" connect="1" arrows="1" fold="1" page="1" pageScale="1" pageWidth="850" pageHeight="1100" math="0" shadow="0">
            <root>
                <mxCell id="0"/>
                <mxCell id="1" parent="0"/>
                <mxCell id="2" value="Pacientes" style="swimlane;fontStyle=0;childLayout=stackLayout;horizontal=1;startSize=26;fillColor=none;horizontalStack=0;resizeParent=1;resizeParentMax=0;resizeLast=0;collapsible=1;marginBottom=0;" parent="1" vertex="1">
                    <mxGeometry x="80" y="120" width="140" height="182" as="geometry"/>
                </mxCell>
                <mxCell id="3" value="_id: ObjectId" style="text;strokeColor=none;fillColor=none;align=left;verticalAlign=top;spacingLeft=4;spacingRight=4;overflow=hidden;rotatable=0;points=[[0,0.5],[1,0.5]];portConstraint=eastwest;" parent="2" vertex="1">
                    <mxGeometry y="26" width="140" height="26" as="geometry"/>
                </mxCell>
                <mxCell id="4" value="nome: String" style="text;strokeColor=none;fillColor=none;align=left;verticalAlign=top;spacingLeft=4;spacingRight=4;overflow=hidden;rotatable=0;points=[[0,0.5],[1,0.5]];portConstraint=eastwest;" parent="2" vertex="1">
                    <mxGeometry y="52" width="140" height="26" as="geometry"/>
                </mxCell>
                <mxCell id="5" value="data_nasc: date" style="text;strokeColor=none;fillColor=none;align=left;verticalAlign=top;spacingLeft=4;spacingRight=4;overflow=hidden;rotatable=0;points=[[0,0.5],[1,0.5]];portConstraint=eastwest;" parent="2" vertex="1">
                    <mxGeometry y="78" width="140" height="26" as="geometry"/>
                </mxCell>
                <mxCell id="6" value="CPF: String" style="text;strokeColor=none;fillColor=none;align=left;verticalAlign=top;spacingLeft=4;spacingRight=4;overflow=hidden;rotatable=0;points=[[0,0.5],[1,0.5]];portConstraint=eastwest;" parent="2" vertex="1">
                    <mxGeometry y="104" width="140" height="26" as="geometry"/>
                </mxCell>
                <mxCell id="7" value="email: String" style="text;strokeColor=none;fillColor=none;align=left;verticalAlign=top;spacingLeft=4;spacingRight=4;overflow=hidden;rotatable=0;points=[[0,0.5],[1,0.5]];portConstraint=eastwest;" parent="2" vertex="1">
                    <mxGeometry y="130" width="140" height="26" as="geometry"/>
                </mxCell>
                <mxCell id="8" value="telefone: String" style="text;strokeColor=none;fillColor=none;align=left;verticalAlign=top;spacingLeft=4;spacingRight=4;overflow=hidden;rotatable=0;points=[[0,0.5],[1,0.5]];portConstraint=eastwest;" parent="2" vertex="1">
                    <mxGeometry y="156" width="140" height="26" as="geometry"/>
                </mxCell>
                <mxCell id="10" value="Consultas" style="swimlane;fontStyle=0;childLayout=stackLayout;horizontal=1;startSize=26;fillColor=none;horizontalStack=0;resizeParent=1;resizeParentMax=0;resizeLast=0;collapsible=1;marginBottom=0;" parent="1" vertex="1">
                    <mxGeometry x="280" y="40" width="140" height="130" as="geometry"/>
                </mxCell>
                <mxCell id="11" value="_id: ObjectId" style="text;strokeColor=none;fillColor=none;align=left;verticalAlign=top;spacingLeft=4;spacingRight=4;overflow=hidden;rotatable=0;points=[[0,0.5],[1,0.5]];portConstraint=eastwest;" parent="10" vertex="1">
                    <mxGeometry y="26" width="140" height="26" as="geometry"/>
                </mxCell>
                <mxCell id="12" value="paciente_id: ObjectId" style="text;strokeColor=none;fillColor=none;align=left;verticalAlign=top;spacingLeft=4;spacingRight=4;overflow=hidden;rotatable=0;points=[[0,0.5],[1,0.5]];portConstraint=eastwest;" parent="10" vertex="1">
                    <mxGeometry y="52" width="140" height="26" as="geometry"/>
                </mxCell>
                <mxCell id="13" value="dentista_id: ObjectId" style="text;strokeColor=none;fillColor=none;align=left;verticalAlign=top;spacingLeft=4;spacingRight=4;overflow=hidden;rotatable=0;points=[[0,0.5],[1,0.5]];portConstraint=eastwest;" parent="10" vertex="1">
                    <mxGeometry y="78" width="140" height="26" as="geometry"/>
                </mxCell>
                <mxCell id="14" value="data_consulta: Datetime" style="text;strokeColor=none;fillColor=none;align=left;verticalAlign=top;spacingLeft=4;spacingRight=4;overflow=hidden;rotatable=0;points=[[0,0.5],[1,0.5]];portConstraint=eastwest;" parent="10" vertex="1">
                    <mxGeometry y="104" width="140" height="26" as="geometry"/>
                </mxCell>
                <mxCell id="18" value="Dentistas" style="swimlane;fontStyle=0;childLayout=stackLayout;horizontal=1;startSize=26;fillColor=none;horizontalStack=0;resizeParent=1;resizeParentMax=0;resizeLast=0;collapsible=1;marginBottom=0;" parent="1" vertex="1">
                    <mxGeometry x="680" y="40" width="140" height="208" as="geometry"/>
                </mxCell>
                <mxCell id="19" value="_id: ObjectId" style="text;strokeColor=none;fillColor=none;align=left;verticalAlign=top;spacingLeft=4;spacingRight=4;overflow=hidden;rotatable=0;points=[[0,0.5],[1,0.5]];portConstraint=eastwest;" parent="18" vertex="1">
                    <mxGeometry y="26" width="140" height="26" as="geometry"/>
                </mxCell>
                <mxCell id="20" value="nome: String" style="text;strokeColor=none;fillColor=none;align=left;verticalAlign=top;spacingLeft=4;spacingRight=4;overflow=hidden;rotatable=0;points=[[0,0.5],[1,0.5]];portConstraint=eastwest;" parent="18" vertex="1">
                    <mxGeometry y="52" width="140" height="26" as="geometry"/>
                </mxCell>
                <mxCell id="21" value="CRO: String" style="text;strokeColor=none;fillColor=none;align=left;verticalAlign=top;spacingLeft=4;spacingRight=4;overflow=hidden;rotatable=0;points=[[0,0.5],[1,0.5]];portConstraint=eastwest;" parent="18" vertex="1">
                    <mxGeometry y="78" width="140" height="26" as="geometry"/>
                </mxCell>
                <mxCell id="22" value="CPF: String" style="text;strokeColor=none;fillColor=none;align=left;verticalAlign=top;spacingLeft=4;spacingRight=4;overflow=hidden;rotatable=0;points=[[0,0.5],[1,0.5]];portConstraint=eastwest;" parent="18" vertex="1">
                    <mxGeometry y="104" width="140" height="26" as="geometry"/>
                </mxCell>
                <mxCell id="23" value="email: String" style="text;strokeColor=none;fillColor=none;align=left;verticalAlign=top;spacingLeft=4;spacingRight=4;overflow=hidden;rotatable=0;points=[[0,0.5],[1,0.5]];portConstraint=eastwest;" parent="18" vertex="1">
                    <mxGeometry y="130" width="140" height="26" as="geometry"/>
                </mxCell>
                <mxCell id="24" value="telefone: String" style="text;strokeColor=none;fillColor=none;align=left;verticalAlign=top;spacingLeft=4;spacingRight=4;overflow=hidden;rotatable=0;points=[[0,0.5],[1,0.5]];portConstraint=eastwest;" parent="18" vertex="1">
                    <mxGeometry y="156" width="140" height="26" as="geometry"/>
                </mxCell>
                <mxCell id="25" value="especialidade: String" style="text;strokeColor=none;fillColor=none;align=left;verticalAlign=top;spacingLeft=4;spacingRight=4;overflow=hidden;rotatable=0;points=[[0,0.5],[1,0.5]];portConstraint=eastwest;" parent="18" vertex="1">
                    <mxGeometry y="182" width="140" height="26" as="geometry"/>
                </mxCell>
                <mxCell id="26" value="HorÃ¡rio" style="swimlane;fontStyle=0;childLayout=stackLayout;horizontal=1;startSize=26;fillColor=none;horizontalStack=0;resizeParent=1;resizeParentMax=0;resizeLast=0;collapsible=1;marginBottom=0;" parent="1" vertex="1">
                    <mxGeometry x="660" y="383.17" width="150" height="130" as="geometry"/>
                </mxCell>
                <mxCell id="27" value="_id: ObjectId" style="text;strokeColor=none;fillColor=none;align=left;verticalAlign=top;spacingLeft=4;spacingRight=4;overflow=hidden;rotatable=0;points=[[0,0.5],[1,0.5]];portConstraint=eastwest;" parent="26" vertex="1">
                    <mxGeometry y="26" width="150" height="26" as="geometry"/>
                </mxCell>
                <mxCell id="30" value="dia_semana: String" style="text;strokeColor=none;fillColor=none;align=left;verticalAlign=top;spacingLeft=4;spacingRight=4;overflow=hidden;rotatable=0;points=[[0,0.5],[1,0.5]];portConstraint=eastwest;" parent="26" vertex="1">
                    <mxGeometry y="52" width="150" height="26" as="geometry"/>
                </mxCell>
                <mxCell id="70" value="hora_inicial: String" style="text;strokeColor=none;fillColor=none;align=left;verticalAlign=top;spacingLeft=4;spacingRight=4;overflow=hidden;rotatable=0;points=[[0,0.5],[1,0.5]];portConstraint=eastwest;" parent="26" vertex="1">
                    <mxGeometry y="78" width="150" height="26" as="geometry"/>
                </mxCell>
                <mxCell id="28" value="hora_final: ObjectId" style="text;strokeColor=none;fillColor=none;align=left;verticalAlign=top;spacingLeft=4;spacingRight=4;overflow=hidden;rotatable=0;points=[[0,0.5],[1,0.5]];portConstraint=eastwest;" parent="26" vertex="1">
                    <mxGeometry y="104" width="150" height="26" as="geometry"/>
                </mxCell>
                <mxCell id="31" value="Endereco" style="swimlane;fontStyle=0;childLayout=stackLayout;horizontal=1;startSize=26;fillColor=none;horizontalStack=0;resizeParent=1;resizeParentMax=0;resizeLast=0;collapsible=1;marginBottom=0;" parent="1" vertex="1">
                    <mxGeometry x="80" y="440" width="140" height="286" as="geometry"/>
                </mxCell>
                <mxCell id="53" value="_id: ObjectId" style="text;strokeColor=none;fillColor=none;align=left;verticalAlign=top;spacingLeft=4;spacingRight=4;overflow=hidden;rotatable=0;points=[[0,0.5],[1,0.5]];portConstraint=eastwest;" parent="31" vertex="1">
                    <mxGeometry y="26" width="140" height="26" as="geometry"/>
                </mxCell>
                <mxCell id="32" value="paciente_id: ObjectId" style="text;strokeColor=none;fillColor=none;align=left;verticalAlign=top;spacingLeft=4;spacingRight=4;overflow=hidden;rotatable=0;points=[[0,0.5],[1,0.5]];portConstraint=eastwest;" parent="31" vertex="1">
                    <mxGeometry y="52" width="140" height="26" as="geometry"/>
                </mxCell>
                <mxCell id="33" value="nome: String" style="text;strokeColor=none;fillColor=none;align=left;verticalAlign=top;spacingLeft=4;spacingRight=4;overflow=hidden;rotatable=0;points=[[0,0.5],[1,0.5]];portConstraint=eastwest;" parent="31" vertex="1">
                    <mxGeometry y="78" width="140" height="26" as="geometry"/>
                </mxCell>
                <mxCell id="34" value="rua: String" style="text;strokeColor=none;fillColor=none;align=left;verticalAlign=top;spacingLeft=4;spacingRight=4;overflow=hidden;rotatable=0;points=[[0,0.5],[1,0.5]];portConstraint=eastwest;" parent="31" vertex="1">
                    <mxGeometry y="104" width="140" height="26" as="geometry"/>
                </mxCell>
                <mxCell id="35" value="numero: Number" style="text;strokeColor=none;fillColor=none;align=left;verticalAlign=top;spacingLeft=4;spacingRight=4;overflow=hidden;rotatable=0;points=[[0,0.5],[1,0.5]];portConstraint=eastwest;" parent="31" vertex="1">
                    <mxGeometry y="130" width="140" height="26" as="geometry"/>
                </mxCell>
                <mxCell id="36" value="complemento: String" style="text;strokeColor=none;fillColor=none;align=left;verticalAlign=top;spacingLeft=4;spacingRight=4;overflow=hidden;rotatable=0;points=[[0,0.5],[1,0.5]];portConstraint=eastwest;" parent="31" vertex="1">
                    <mxGeometry y="156" width="140" height="26" as="geometry"/>
                </mxCell>
                <mxCell id="37" value="bairro: String" style="text;strokeColor=none;fillColor=none;align=left;verticalAlign=top;spacingLeft=4;spacingRight=4;overflow=hidden;rotatable=0;points=[[0,0.5],[1,0.5]];portConstraint=eastwest;" parent="31" vertex="1">
                    <mxGeometry y="182" width="140" height="26" as="geometry"/>
                </mxCell>
                <mxCell id="38" value="estado: String" style="text;strokeColor=none;fillColor=none;align=left;verticalAlign=top;spacingLeft=4;spacingRight=4;overflow=hidden;rotatable=0;points=[[0,0.5],[1,0.5]];portConstraint=eastwest;" parent="31" vertex="1">
                    <mxGeometry y="208" width="140" height="26" as="geometry"/>
                </mxCell>
                <mxCell id="39" value="CEP: String" style="text;strokeColor=none;fillColor=none;align=left;verticalAlign=top;spacingLeft=4;spacingRight=4;overflow=hidden;rotatable=0;points=[[0,0.5],[1,0.5]];portConstraint=eastwest;" parent="31" vertex="1">
                    <mxGeometry y="234" width="140" height="26" as="geometry"/>
                </mxCell>
                <mxCell id="40" value="telefone: String" style="text;strokeColor=none;fillColor=none;align=left;verticalAlign=top;spacingLeft=4;spacingRight=4;overflow=hidden;rotatable=0;points=[[0,0.5],[1,0.5]];portConstraint=eastwest;" parent="31" vertex="1">
                    <mxGeometry y="260" width="140" height="26" as="geometry"/>
                </mxCell>
                <mxCell id="42" value="Usuario" style="swimlane;fontStyle=0;childLayout=stackLayout;horizontal=1;startSize=26;fillColor=none;horizontalStack=0;resizeParent=1;resizeParentMax=0;resizeLast=0;collapsible=1;marginBottom=0;" parent="1" vertex="1">
                    <mxGeometry x="320" y="440" width="140" height="182" as="geometry"/>
                </mxCell>
                <mxCell id="43" value="_id: ObjectId" style="text;strokeColor=none;fillColor=none;align=left;verticalAlign=top;spacingLeft=4;spacingRight=4;overflow=hidden;rotatable=0;points=[[0,0.5],[1,0.5]];portConstraint=eastwest;" parent="42" vertex="1">
                    <mxGeometry y="26" width="140" height="26" as="geometry"/>
                </mxCell>
                <mxCell id="44" value="nome: String" style="text;strokeColor=none;fillColor=none;align=left;verticalAlign=top;spacingLeft=4;spacingRight=4;overflow=hidden;rotatable=0;points=[[0,0.5],[1,0.5]];portConstraint=eastwest;" parent="42" vertex="1">
                    <mxGeometry y="52" width="140" height="26" as="geometry"/>
                </mxCell>
                <mxCell id="45" value="senha: String" style="text;strokeColor=none;fillColor=none;align=left;verticalAlign=top;spacingLeft=4;spacingRight=4;overflow=hidden;rotatable=0;points=[[0,0.5],[1,0.5]];portConstraint=eastwest;" parent="42" vertex="1">
                    <mxGeometry y="78" width="140" height="26" as="geometry"/>
                </mxCell>
                <mxCell id="46" value="perfil: String" style="text;strokeColor=none;fillColor=none;align=left;verticalAlign=top;spacingLeft=4;spacingRight=4;overflow=hidden;rotatable=0;points=[[0,0.5],[1,0.5]];portConstraint=eastwest;" parent="42" vertex="1">
                    <mxGeometry y="104" width="140" height="26" as="geometry"/>
                </mxCell>
                <mxCell id="47" value="permissoes: String" style="text;strokeColor=none;fillColor=none;align=left;verticalAlign=top;spacingLeft=4;spacingRight=4;overflow=hidden;rotatable=0;points=[[0,0.5],[1,0.5]];portConstraint=eastwest;" parent="42" vertex="1">
                    <mxGeometry y="130" width="140" height="26" as="geometry"/>
                </mxCell>
                <mxCell id="51" value="telefone: String" style="text;strokeColor=none;fillColor=none;align=left;verticalAlign=top;spacingLeft=4;spacingRight=4;overflow=hidden;rotatable=0;points=[[0,0.5],[1,0.5]];portConstraint=eastwest;" parent="42" vertex="1">
                    <mxGeometry y="156" width="140" height="26" as="geometry"/>
                </mxCell>
                <mxCell id="56" value="n" style="endArrow=open;html=1;endSize=12;startArrow=diamondThin;startSize=14;startFill=1;align=left;verticalAlign=bottom;entryX=0.012;entryY=0.085;entryDx=0;entryDy=0;exitX=1.009;exitY=0.096;exitDx=0;exitDy=0;exitPerimeter=0;entryPerimeter=0;" parent="1" source="10" target="18" edge="1">
                    <mxGeometry x="-0.9978" y="-11" relative="1" as="geometry">
                        <mxPoint x="558.22" y="63.95" as="sourcePoint"/>
                        <mxPoint x="680" y="19.999999999999957" as="targetPoint"/>
                        <mxPoint as="offset"/>
                    </mxGeometry>
                </mxCell>
                <mxCell id="58" value="1" style="endArrow=open;html=1;endSize=12;startArrow=diamondThin;startSize=14;startFill=1;align=left;verticalAlign=bottom;exitX=0.5;exitY=0;exitDx=0;exitDy=0;" parent="1" source="31" target="8" edge="1">
                    <mxGeometry x="-0.75" y="10" relative="1" as="geometry">
                        <mxPoint x="150" y="418.02" as="sourcePoint"/>
                        <mxPoint x="150" y="360" as="targetPoint"/>
                        <mxPoint as="offset"/>
                    </mxGeometry>
                </mxCell>
                <mxCell id="59" value="1" style="endArrow=open;html=1;endSize=12;startArrow=diamondThin;startSize=14;startFill=1;align=left;verticalAlign=bottom;entryX=-0.014;entryY=0.086;entryDx=0;entryDy=0;entryPerimeter=0;exitX=1.006;exitY=0.05;exitDx=0;exitDy=0;exitPerimeter=0;" parent="1" source="31" target="42" edge="1">
                    <mxGeometry x="-0.833" y="-6" relative="1" as="geometry">
                        <mxPoint x="270" y="496.36" as="sourcePoint"/>
                        <mxPoint x="330" y="454" as="targetPoint"/>
                        <mxPoint as="offset"/>
                    </mxGeometry>
                </mxCell>
                <mxCell id="66" value="" style="shape=stencil(pZ3XzhxHkoWfhreF9OZ6duc9BIgaEqMVBYqz5u03colqc6L6y7+xdzRxqstkhj0R+Sn/7a8vv/z5+VMKf/34/u2fn//r668/vnzK//Yppa9/fPn8/esP+9On/O+f8t9++/b98z++f/vXH7/+/PufvyzJ9af/+Paf6wr//RNXx1HGQqXwPz//JRwj/98//P2n/O9f/3iUr0dP78jno1eVTyAfjx7fkC/zqP0d+X4kdz8R5MvF85J8OqK7H5DP8+L9kHw/SnlHvh6pvSOfjvnO8+Zw1PmGfBrvvf/UjvDO/ad8TLeeSd6+l1tvsJ7tv/37nK/l4zjq8/XjEWB9xn6ELvIpgHw92hT5UkG+HDWIfO8gn4/8/L3shTWQT0fqIt/oee3xnr9XPiI9bzjKFPkG8vP8mqd4wcvPIyURb7AahiqrekR4+ePIQcTbeC3ej/m81Rsuha6asOGXNUX4fO/9/NKX4u0YVcQnitfnbTLOf3ghLm9mnmr0hXhU8VFei1d9kfGmtV7Ij+ebt1Va4M1XXWRrF5CRO1XSTT4fgYzoMYLKD1g4ZqNFJ5gVw+uLjVtaBe+/iXw7d+ULedWB/dz1L+SLPO84An5f0SEmj07JqcJu8vNoeP0gOjCcXtO1E3DM5/VgSjaj/Hi+f1OamZwYXZ+mBDfycv/lyLAbvbx9Qb7+8/5aqoefV+THaYU/KD9xvTn5vHEKnbwZOVg/Xj6jfvDyBdebl7cdyt9L5NvpVX5Qvh/9rfsfqD+9/Jvfq4QjvyUfN+u/P++vcvNSXsi3Z31V8pHwexWRL2ipzQd51s/FNBLsF/Npn/d7MQMI95NPbX+T76g/s/qEJj/h/vP5dDf5myN07TSrPlxRG1w/nav95ieFM2p4IS/2yOQnrJ+kPuSKOvF+8rNnVdMZhb2QlxjHouBEQcWpbW7y5Yx6XsiHofITry8xlEXxpA+T2rvaUP94edMn+H5UfqCr6uXnaaE+Jt8COqte3v4F14/KZ3RXvbzph7euXzfrTeUbBkVevqN/GDWmbgP97aj+TJuoT24h6C22MHtNQenRntdzjxjkx6NK7GIag4Lkozzvx57Rf7tZn5s879+oUabJUyDo5dlexNNaPcg3vh95n42DfI3xTb7h90rP+rb3zfVF35o833+V5x0Yh0eNp0ye7t/liPrE+C6pPTV51odiHwfbu9tqfJAn/ZnP3XeTjxh/FY2/BieJypkCu8knvP965Kjy9H6q5kgH29Obd/QgT/GIT1ZYfATXN28qqDzF4/30Zm/yFZN0Xf2f0Y4A+s1We1L5Cu9zHOV5f42OWbHh7of341T/ZIzT430hL/vd5BvKN9kvE/Xh1PyPyaO+CqrgZmCFG9TCGAAt6s3A3QARVcrKk0YF4DNETQfOhEF2dFbeAJWeIamZNAC5WQYQPTE3djWrIjIAZqvLuU9ugIKRkgHElTAAhaqxav1lFvRFY9ME+qz8pfupex4AjT7ccLdUMfxZ2S750g1zv6tmURWAAZOLsGbHsocPcQ2QyWTad3AA8ulMyc+qgEm35Co3k7VYDmeQ/QAosIFyVLtjAHqGnFWxGmCAIs5FNeWc56e8BrTTsD4AyNTmrr6LASi3uAqeSQGFnAvn3RmArFvJZ7LyAUDhUKlaA58Tyz6lX/0C3dLN3jwCyEOKmoLdAVzdcwdoZ8nho4DhljcDLOh+7xdW1O3fEvl5RRMn80YHuAa0My54XHywpy3Q9b9AqckV6bpnoFyjha7dvdYIesli0eL0EmV/LLhU3TpQe1s0V5ICqN5h4Zk46AYgrWHxlnhkk8uJKyAKCiAXdNzK4B80KBaCqKrs7HRnp8g4CrYgoQcFUJhhUYLeUj1X1zWgaaAxuZB39/sfnRN6rV1TrZNDH/PkgwPQWhouODEAJa/HcBYooxIw5997lZTuM4DUa5dnDKt1+tV6c65fAaoDFPhwK7xwAQd9B7ue6taAi88A2QVNVFRa8UhQAGV5pkvD2KekgMPeulggW47k/hhAEk9rwfMviK8xbsyEVwApLdmmpZBmLbXn/WBqgXK7BpBY1BQPvqWsgZ+pNqrWGWBKOiZy+F3OYPgh/0T1hOlIR32iIpuuwmcAzCBULamZiSm0NOr5Eh9zjPwLEj+YmcTF1zSO65zFWeZDnqFi8GoGSvOS5cwSvAJIWLYS2wwQpkFPvLyHYxVF/g7DLY2A0e4KkVxxgcgecyg7xwCBFt9Qf8m8QFSVU/OBrWM+fwHklhrbh6mazwBkp+9h3g1wI+F8FHBjvn4UkJEJeQmgnMAFIGFa/wIQsc52AQgYsXtAnbxaPWCwqrwCkPtzAehvPrSFgujNeMCNYPZRQMGE1CWACBcXgIxJhAtAenN5W0g+39pxBkD3xwMCZk48YNEo3nqGwnWuC0DHwuoFoLFhvwJQtHsBqG8u78IZ3QtARjbLBYDz3pcA9GY8ILKT6AFha4GeAXly/HAFCO8Bxpt7+t7r8FEAB+AXgPrmh1vtFBQOeEBh98cDMhaOLgHvWdGcMNl/AYhc7XPOiQECvaWhrnQOO69Soqw0saA7h2bW06ZCOJTCkQb3FQxNxaeNne7uGTovja5pisXBp19omgJeDQObgEN+oSJL3wASTy+qM9+SRLuLeUyrtWqOLGXOOtTTZj4ANpGikOEWfZCeoSibfvFBGCDVgbTZQEX5PQbAX8iOMB4wz2cAKdUaAPtgksZAkYsu01X8DIDRbtREeRxICp1RK36rK4AAQfdD7OwJuCr+6sYiZRw0fRobploW72AqgPSSAYQqEyvuB58NNQAmmYcmmeM2oys7zgDEZlnkj6AAzOh2LX7FjIWjlZV2DTVUfzCA7IeYkOFqgOQA+Fq7MhEWv4I4Nk3tw2o64mS/rtbIr7UpzS8G7m676psi92cVLCQrjYHiypVKGeisbb2SV+IVxpXDEflNxdDSLtq8OzCE8yUg5tGO7IiiGMsMR5hpyIs1eXEZGu/MqOm9hrxVk3cNjBQpLVqiEM8x3biqfM/vp2A02aeydwqawe7ybgWzaN2pOu67611zkxlNWu96P9z86guzCd9/d42DCYvX93zzXZ4KY71okTXifu9Zy+/cF9cdkTxiArAHrX/eiEuX8m2oA8x9I61r6T3g+myuTzVgDqkVbdwJ6F63rMTJcJZyruVdIwjz7FvQ1Plm2IMjZgZcD2v4hA4DIOdmpRGTyFOQVh27L6D+N/mi909Oby1+GACFdCYfVT7D+69F92NALkktWndm2qrJZ33/pH9Mvur9Y19u0cJ5QI+9Vi1Sb+Wzrgfso65a3g2o36obrhCwz2flxfX+yb7UqvaRM8C1+vVM9t3ki94/lY5NPun9436p6uRu96MbdoJ9+EUpmAErFWs9qzz2pbtCduA+/4v9SP5Mdf5kwIRMLZpfCZgcr8UP7yF7Vy+G2VCMvvStuz6/n/fkh/rnAf3tOjVG4nikBc0xBExBr/qiuz71jWRNSfB6WPbdrR/iNzY/nIayZ+1iOBDKD822beSn12/EqTN/zA1zQv8znpm4j9nTnrw9Iv1wp0c8+DPs32qOiqmZVZ+X54Ysf17lqSjZHV0v4X43eef/U3y9ODMqj/78VP3PfbCrDS6IPH2v4fz5jP7wcH0KnG1ePKck8sjgTMoyqvj+F6dUGseR1bfa2jReHpRvyY7agq0lq61NRwQhibacXIV7vgL7xKqfKUQF6pUvkkZPZgE31+iG8aNPkTH5wuS1QQntxXAzlJjgvtKOok/YYA+3gSNPnhlDLYYBiBy+srmS44vogy6OZlcALtLhphElTs46OpUBqJh955k+pH+p1W1l1YcCcKHOiwQzNQ+NqQTGyC2lM2g9MRYufAX34SoqXwNo7aEyLzRqdipuCIzRpV8as5ijG5zVmIWQdMNFZvXPpBk5A2ARNavLHjfkv+xs/sCkimfPxoleggEkq24ApC1UTbMtv4g+nGuASlxKWGVaByDO/b0j8QZImGqezdVE0642rc/AyVQDqHOUmT7ivS9OH6+Ok6YAXBpdv3SqqO6n68lKDTXfauSZCkA1M3R2wOpmZ95PcoANt1Wc4FWlYYKKKONF7mDOjH5pnscw5xVBBRvGg9qsHQdm6obYs2wUsOXxKGDLFPKADRdJAVu2kwK2fCoP2DC2FLDlhClgyzpTwJbXpoAtc84DNtw8AezZfwrY8gsVsGUwesB7H27PwlTAluepgC2TVAFbrqoHbNiwCtjybRWwZfQqYMsZFsCelayALe/ZAzbMagVsudsK2LLDFbDln3vAhuGugC2HXgFblr4Ctn0ACth2GnjAppdBAdtuCQHs+zEUsO34UMC2p0QB71rRfV+MAradNwrY9vbo/LZt95DkPff9SeIwtU033XTMlrFTM1Iqa5Pde+clrj4x/gUhV6xONF4aMhugR/4OjsbcEy/v4W4p81saGrKvlPcm4pCMXWXD7s5PWF2N9AtNJx0ZgFInK5CTnkOeJjldlaQPtnGuTLvmuXFALXWVEVgJVJeoDLz43MjlEfmhi/av3gcYvAIIg3H1EfMtSXJ/cOf+yoT4MWe0H3yncuNsTtaAevVz0+Jz2ZzBk20X71meYXBiI2mib3DOeGWkogKwfzW5AVKBs2puvOdkmtKM+uHmRpFFN66AiWIzurkrnNKdjjk4M5us4E4QyMzodSdD3HfIy6SxGxWGaenhZrxVzFMM1zw9uR9j1ROSArBA1txQuMaMzOpGVDV+aEfZmMyhH25Pr7TZpgiXFLBhoUoV624mLwFmDUS33tuDrgFDk5WTB6Sv0QFuhg8pge6YTptBXuYo6Iy37RwinY82ufgeLkYjkXdvHp5UN5dTx/QHmWM7+ZyP5ur7yzFlQqTOv+HBFH6m1UPq7xLhx2ZtEW4y1xbhhn9tEW6+2A5RHNd6i+ju2I8dorqhTRPD6pLd6EP+fvc81yMAtnaeTgFyGLGOUnA7lQzRymi6NUieXC563MnaqTTUL7khlxONaY7Kc7v3eF4C0lQi9dJnfAyYn5VIftbqZHAAmsyzWgfcLW1GUEpReHaMw5Prnpgd/d3kSrbLNtKgTu9BNIwKYneOWePCRXNrqWKkH6vGf5OryNFxpCfn/C+GvhYkGMSkFdg1Ygw+XHQ0+Huscw2IzqnJSIxdnVjOfcU5tMHNVUs4oy/6EWM8c3teDBymtzrd1M3IdXDnAvFMKNcDvoamUS+UvqDBLeDDzRhn/8f1c995K9fujzqVy3tHedmZo2Phtev7vJONrj0T/b6DuV1Nm5QHFzf8TPWKCtvPbK+oft0ZXoNriW5C2Mjo6rlWpRV4kGvhsh8J07jZzSRPqISycpZGxNDNUQkHH/TozpSxMIgcnajxwmAufNR0Up/IbXBBmMlTTOXOeewD3ajgqIcD90vQJEnnmV2uwL85wyLo5IPNGRn+fvgMDscX6xWz1UEzML1urq9niJTN9cV76tzk7SZeblLbwSWqOd8ZtJWuc29icBMHOWMbXMVj8kGwbtQYR/xRk9rbM3pUns8A8vJ8xpCX5zOMvDxzw708pxS9PJ/x5OQ3Z0h5eT6jKmpWanMGlpfnM7aiOyOsbs48kv1+b558pc+DytP+dWcerTPO8H4kfqtsH91s/Lo570LZrZV7bR31tIbNmT7iDxQOut05yIupgWeoSWa28GzbpJy2wuOqs2t9Z6aga0UofLZxVvplKbjfXX5ynbGI/pKe+Zg4h6FDbTdnRHp57lVy8pszLr08p4i9PJ/R6eWZ2Onl+YxRL89nmHp5PiPVy/MZrF6e400nvzlD1svzGbVens/A9fJ8xm7W1vfNGb7ZnUHMZwRn9We2ZxCLP5y4b6SoPd309rly9Tq1Bu9H2yE4A1mupknh9bXtpaP+Ka7xoG3OjBZOQuRTf4prneAzvr08zzK5kqeimZdP6A+4+D3G3Zm/0lsSNvkHPQkK013uSPCJu70qZ31sDkDXyd5o210BiJda09Brl/mRzEzjIS/OkeQeW60EMDFy6NU56zPU6+Gkz9Qk1+a8seD7X+k7RXdQKFPyVx+bdLbx9bMm9SLyxXxyPiJHLjY/fwJjoqEj7Zlnfh8/cpenteMPNub5DcnVPdmm3MdbfVB+6Ptk+XwbZ/FB+eTn2aB8fW/eTL6YB4Dy08/nQBud/HwLlL+YP4Hyjmy4kZ9qpDfzeKKfT4Dy+eL98PwV/7wkP/w8D8rJ1Iv5VZvrv/X+qzs6YTNPZahTu5k3M/x8DrTprjOYz4q4lOfndfdDzKKr58X5VRfvk2KEq+9FPu3VesB5XRfr7f8nb3/485cfX37+5bevv//+14/v3/75+fH/f/v2/fM/vn/71x+/3v7pry+//PnZ/va/);lineShape=1;" parent="1" vertex="1">
                    <mxGeometry x="18.26870449183616" y="67.37400486048341" width="268.0214131788915" height="725.8922503779004" as="geometry"/>
                </mxCell>
                <mxCell id="67" value="" style="shape=stencil(lZ3ZstzGDYafRres3pdrx3kPV1mOVXEsl2xnefugo5Az5wfna507LQCn2URj+bH0h/zd7z//8NvHDyn8/seXz3//+K9PP/7x84f8lw8pffr1549fPv1hf/qQv/+Qv/vp85ePf/vy+c9ff/z6999+WJTrT//4/M/1hH9/5RvtmHlxpfCfr/9Sjtz+9w9//Ur/y6dfn+nrEZvSF6DPRx9Kn4E+HeNdz49H7+95fjhafQd9n0d1609AP46q608D6Lt/fqLnt6MGoY+wP70eRd83wPftRenzMSfQ56NGpaf1J92ffIwK9PFoQeg77ad936L08TV9m56+wfrbOFoW+gr737p+r3wU2P/WTnF50JN8tnIMpY/wvZr9vK4n0PqjPt8OKD0/nOrjQd/h+XUcIwl9he9bu64/HQX2p7YjVKFPRF9OcXnQ03mpbj/jMQPQ2+O60OP+hKNnoa+w/2X69RTYzzKOMIU+0/PbMfT5Gc5XqedyH/S0/6Wcy33QR9APxfZfnx/ofdMNPXyvElWeA+q3Ek71/aAn/Zbn+fMP+v8btHv6forLg77B98rtVB9P9CDP2fRJVHqQz5yP5NZD9KZP3kUfTnX8RA/yk0z++3vox6k+vpHe6Z8Nvdlrt36Qh1SPXoW+g7wZfVD5HHAezfy79U+iN3Oo+orOl6nLmYSe/J+ljpWe7On67yb0g/Y/ePsV4XwZfcxCX0E/xKnyk/C8x6H6PKO/Z/RB7XuF941d9VvG/YlN7W9BfWv0Yi8uh/Gevqr+LCjP0dnfivo5mrs5hD4zvchbPR3Me/qk/ltF+x4vcTzpzaFj+hSFnux1NPUxhJ7shdHHt9+rHxHWM1U8O7qrZr3e7uY4X+c++jryW2Uyj0TB5hGikJOu6k5V2WYhfRZXIHJs51y3dB6Ge19YVXlk3dBUlZiw0vrbeVIveo5l6+m5X/T1/Hwv6EXUjJ58jepct3Z+7xf04jqY8gqwP1VdJaPv5EseXd7X5I98w6PKfs4jkq93apon+gHvW85I6zIVG19MoZNl/MiXVFW1sV359MQveo5l04kEXPQFY5Hk1s/y46CBdBmnF/QaavZjwn6mUxNf9BPlzYVq5oyiLTpmVXq0Fae0XPQWCzK9QC3pdC5f0IspNWedsLSo0FhmrChqaPcIHl7Ri+uzsb2n6bno2+ncv6AXfW7BUsH1ZNmfgcYu6nmx4A19MTW9JSC2FB20Gk8L8or+rT6x4HbyesTVY+zQ6N/ujwXzFOtHPS9l48uo81A6xoJBz1cZp3P/gl5c/xpOi/OKXlzPiPo5aCheM/oDznWrBfXz5b1c9BWxt6BQcu3oXhn92+9VB+rzoPq5zhOs/7bnt4j+hqfnWM29bzOLxvRvz2O7guFvfH7FWN+vv6H+9/QDsVtPP89g79u+Vw+INbrn94j6xNNnjC3cfvaC0YL7Xr1u5FlSBb1t5EHsXe8Yi19IzEU/Nu8roXU3fwP3U0JZo5+oP8X/H4zlRI2+RtzYa9mfkTCXYtIiz89o35NCk6OcyaRX/uRbfTgqYv9ZoYrRUP87/3l09H/y6W0+0ZM9ctD2GLif1QXXfN6rnq8Z8Hy5+HGy/Lh4djJW1120n04P5wX9dPSEFQ3VDzNj/D7VHzN6itemppZnYX/S5b6MYZIDFzT5Pk2iyUOMmm01hkkuXFL4cDZ+h6ROijHQJi1ATaSCtagxiFo0BhKjhWoMZehwDoxBFOkcqHhjVcthDGRpYlPowhgKvUNT39UYCNuJXfPSxoDA6bWAJwZEfqfCF8ZA5j651NZke+YDlMVAAEBSjT0ZgVkqvjoGgjCKgxQn4t0edFoMlEC48OFnBkIlXEZ1x+Bwzt07DKc1NrtkovGubc3BmZJ55lFeMQz/peE85OiM20TnK6fT93sWPrDOxjC9tFIqNmtqcjFwblVP3DzF8Z6hOvEeaKGNQU3oQBcvd/Uxll6idxin9D9rPtql6YziQK+8ODd7aW9YUnEpRLMPA6S1ZA30jYGAmeLtQ+cqiX6a8ScGhJKns3ENtXd14JgxEBhVszMojSthqmbqZ8VtrZeRffZmyJ/0WqPieWgOkTUHC6u1smajjQHLo1y5ivmI5Gu07kxWRpCsDS1QMC93gCKzIF/CHmNIXAI3nJ/e4MT15JRAQE+guySqMZBht0BfoFkLZRKV/bnvYLES1mk2zbtaMLYp1JRE/+DzYMG4nLhVC0vJTlNkwlBQvIcPoBN69+PCW54jeqp+Laq9B6eg1isKxjMxQrFNlCNqG00JcF+AbJ9ygrSO7lLUFcPo4dyfhzjeM0wNaUzgyXUwBkECOlf12XGRM22HllSlnWDJDTf2NVao/fYdGidLlxaSQoSGimzpOYFHC9qH6ZSxqWfKD08HmKxqVBC+h/m4GAJqjWWg3qqZRz3qKwb50rVjvckj3H4C8VE0XEFOLYhazQvkvxjSqXheMTRhiPwOwyVqJhYyGEN2mRpC2pfTKamshmXny62VXFNFRbY8bfkFVgLToUXmNpK6N4YkDJHhpan4WAmIl05Xa7aca34HzaByhmExSLUZK+MbBlbGNwwFizLmdAVtmTWfZ4h8HjxDwLycZ0gc7d4wdMzs3jBwKc0NQ8W6/sUgdfFcKDhdHJcS+t7TWdGV0OcliSu9ECdWM6IE4mTxHhqxx4FY5Ryaoogbdd8VeowN6yOXMn5rHxYYSQeoaxVCLKxmmhp2Y0BpbWrYY8a8wzKK8gsJEyEPlPuJgUKahaPLL3BIs1yHpAwE2y3nRIq5uFB7uT9NGXBbnYM1+QeSw5hZuF25z8BOqenKTTY22lXiD3SKV0goXjRWqpoTLem3jtVN5tZLOVrnzr+hlqejRIzunHqsXjB60aicOLHQSt1hPGVGL+V0jSOxqm5eQ9U1XMjdEPNd9OJGctzm0pMVkZW1fimvQXszXOdE3e2nlgdhCLYi2yz05LgYfXTPp/W3E6940JMXMpqquIrVU6Op/FfEnYbrNK3okq/nq7xRGmM4M9MQsFnwjD6fsv9r//V84X467HxLP/T5ZOmXfAZ9X6YXz4A7Cfx5bJiduzu/FNT59VQ0waP6Tg4CqIfDm7m6Y30v1/nB8hnd81n+o553pO+uvI/P19By5IrVy2NoXmSjn53/3dg+Ti/PVG1u9r0oPcI/UTOpbH+nKy/mMoGZHFSJxRfTlxNxMJ01vh/sd2eNTiYHus5lnQjCL59YAoGAmbjldYvHGlFDeLArRnZZm+Y2ll9Pe9rcLyQ8BNO1X64eGdrVfhP9YEfTUNzHArJNFKptI3wwV9gqv8B1Zo+Kg6ewFT+cbwKfOzRAEpwpYEmBMUhu41Fd+IpBTsOj3eMVg4jGAiioWyAEVTAbDOSOg2GWOw5Gcu44GCy64djgUXccDHndcTCqdsfBwN0dxxYblIhuoY+MDYoLkLn/cDFIi8vcYVISJBTuV18MMp+Fi6jXSRIGnuBhDKJv1swEZlCcuTIyMF1jSd9qNIf34+F2KbkaMLheWlmCu8gv7eYk1K1lkW6gWtD/XLia5I64FnNZR1lSx3rn6SKSulHjrgOzXTX6L30I8RET1jxNl8hvPC9neUFvX7pVLBVYbpaEMY0B0eTaNAa/Q9QRU22TRnF1jKuRgl1j2aXO22q+t5T09cxgwXBZ84JpRWPQd2ic0+4KR/SOtnE0xb/6wHTWqNoP2Dmt+GgPuDzwyBUYWRNmIzEG5ooGH4+4Z4gKcm56GOwVBaUajPfbJkpYYBtNifzeFfdYbQnEUNU1M2GhSM5ETZBFk18cypVVL03uhLTjIkpg8hijHnUMyuQ5T80Z9pmwma253NHKAHBlmCRqHjmGe4arO/pi4BR1K65uq3CxWlLI3yxGgu9g5kPfgUHYOlT4zOrhjAGHgk+G0WpWf2kZYmJwbcerFpNGSk1XSc9DMIqbuTI5KCgOmt80KKyKVdfRQA0KJSlYsVwumnMVXBX6QIOSXQJ51SZTffW4Kcgm4ctOkT3qGe4ZmlMCk4dj1ZsGBZzWdQ2jfGIgr9LXiD+FRfccd2XohLvfFrrjh7grpafMzW2xPkFrt+0A2Fpy13BAY9ZuWxqQ4a5pAgdf3bVlkPq+bfzYMPjWEurvXs0r7/uFrEVPu5f27WKbbXUzBXYMwZkgXlKcLg3OZzT6IUOT28W6MxCT+1ybDpZZMTn9ghtC+SjlumeoN3qG3Bk/NmujjY1BS+k3/WXZ1a0P7lVMDv/muCx6p69jhmmh0d6y03dw3rr5DmQgFqLu2jIwaeE05aYsUUGHuakp19pn8/gIaHFR39yM89VphTsn13lvm2YGnW67aQmu2oI+GfapTqp5nGbRHPdkHMqVMK8sG/VXaY57DEz6JpWf0fF9kx5KCw4JnnT6fXARRlRne3CxWXQt/RkxMTfyYCSUz+DWkxARC25/4mZEi3ToDS7qco5OZ3A/qIe62lBwpIVEeGtEBciPg9x7w8K6oAXz2xEbwcFOPMJD6XcjQsRh2Y4gUfrdiBOh345QUfrdiBZ53+0IGKXfjZgRediOsFH63YgcXc9uBI/uT8QWJ1cTuB0hpPQDx4O787VGILE8OAyfnEt33itnk4NO96ycZgsay60RVGCPgurbyiM/gtqjwlBfUAB1jehCeRN/qbTN/oi/sRkxFjTs24wwC+62BB6RFhTJKdzI5d+XWzjcejJDGkFzfZmLdN3IpMxFsW4EUm6Y1HW92bki3B00UsoFRxwGNxJx6z84ehy366Yp8/UBUSsvHuDJC3qB3TJnilxbX+IRog66MQ+fwu2oWdDUNyOfxL81j53il6QNqKvID9bjYMnEELebvpwyFhQljY8eQz9f0Iv8bK4ncI3PS2MTOOcKoibmMbKG8Y954a/ikar0eJ2BqyTifhbfRtHQPymqTyLD/8V18FQsAq4qb7Ggvq03rSwEsTlg3ug5PtV2n7SJl0X+HxjGC3q9PSNgZ0276WLBxnw3vGkzAVtK8jcZXo0uBndQaNVax9qc4RqWuVVRXauGmN1Uy9XQsVqzv7T7gBzbNfpLq5GpUiO6ew8qGvbouod41nd0mrAwBprVE+BAZFVdSk0RBoKmB6T6OrPhqjr/ISMwZnqp6r1PFFjHrmWhXE5k9JI+SIxlujQ/K5LoarQSf1+X7+bZtn6YZsTZ0X6YMt+rs5ar98zgPSdJh/EFTBOvz6/3qBCwkVxmL6B8JjdqIPAs8arnhYHGu3tjcD9v7qXB59/ce4P0N/fqIFB6c28P0t/cC4T0N/cOIf3NvUaUcV9xkHs+pcO7l0+cNuZuzuCC6xLUUge+R8sNQw/s6CUvb3hXQtakGZ/H4mq3AnZzFNdtxBVDxc3/4XuxiitUCVjCVNzshYCBWg3arRkwH1eTricikLzunRNPGwORda+d3puEZTZNh78zEFW72nce1VJ97z56by34e/9ooFqLWiCZEPhc9yKqPaXsZisuUkb/rbnuzoRASHNJ6YT7ucrTutJTIDK1W439me6G12fUn+veTvWvKLG57gXVe6sIaO/OvjOw3d0soYz33HZXSp0xGOnNXW7BdaBu7kNG+elDkZ+MiT5/by33Sfl7cTf07t7dzN2g7l7fzIPH3OU3m+e7e4k3z3djxzK2tq1R4OE9z3eXRWW0R0bv4h2s5+4OmeRu066ZiIxAwuiKdGXuTnX0Bf0lvx4eSuLft3A3tNvPgvrBfy++59nLQ+Fu7vfes72ltz88LvX+6dMvv3y9E/z5//UScPunrxeI5+//Cw==);lineShape=1;" parent="1" vertex="1">
                    <mxGeometry x="43.52703449083265" y="383.16629461547086" width="487.7243930113869" height="408.2491376444406" as="geometry"/>
                </mxCell>
                <mxCell id="71" value="1" style="endArrow=open;html=1;endSize=12;startArrow=diamondThin;startSize=14;startFill=1;edgeStyle=orthogonalEdgeStyle;align=left;verticalAlign=bottom;entryX=0.429;entryY=1.077;entryDx=0;entryDy=0;entryPerimeter=0;exitX=0.567;exitY=0.003;exitDx=0;exitDy=0;exitPerimeter=0;" parent="1" source="26" target="25" edge="1">
                    <mxGeometry x="-1" y="3" relative="1" as="geometry">
                        <mxPoint x="890" y="300" as="sourcePoint"/>
                        <mxPoint x="740" y="270" as="targetPoint"/>
                        <Array as="points">
                            <mxPoint x="740" y="370"/>
                        </Array>
                    </mxGeometry>
                </mxCell>
                <mxCell id="72" value="" style="shape=stencil(lZ3ZkiQ3jkW/pl7duC/PPdP/ITOVumStUclK1bP8/ZBTEx6RF8wD5ZsW3Eh3OggCFws/5b/9+eWnPz5/SuHP79++/vPzf/368/cvn/K/fUrp19+/fP726/f1T5/yv3/Kf/vl67fP//j29V+///zj3//4aUvuf/qPr/+5f+G/f+BaumLdqBT+58d/CVdp//cf/v5D/rdff3+Vj1coH5EPV4wqP9+Xr/PKXeRrBvlxFX3+Cs9T+5WHyLcE8u1KSeU7yNcrZJHv9Pz56kHkB8mv76W/P+l913K8/f14xfC+fBnX6CKf4PdLv+IU+VJAvj6W+ylP61/KFaLID5JPV3q7PukKFeSXOkaRTyCfx9WKyBeSb9eoIt9gPfPSnyHyA/Qt5yu/fd98Bfr9tdxV5BP9ftDnybjf07h6FHn6vqmrPqwNAfYhtcd2esrPAfL1mm/1s1wR3nfJlyzymZ5nfa8g8g30Yf3vqvKT5f//cz7kK36vtRy1izw+T9bfb7hfljrWLPKk/3v7dZEfYB/W9pbn71ci+aDft6N93sfPW/0fjwPqKB/nQx2f8g2eZ8mnt/o/HwfIWX48zMFTnuz/ko9iP5eFpxfoV31rsOKy6KDRsemKxvvMeQ9QowImfIN4q9gNyKgUseoixXJ1WtX6UJobUPmzlWvIO6y3AruyAOJH7IWmRypqKNanLHASrzWp8hcmbv0FiG9XaSl7hL25PpPY0rX7An3pdOWqANTWpN7Qth/0HeLV5S/kx4Z6DyD2aAHwkeKV5QAvV6EPF82y3jb/DDAmaQHIJ12A8XZPbyNMyhd0PyxApT1tvMBlJgPpUjCr1L13kD2dbkt1BMzHBn6R77CqU/fb/i+gSdP4UfPxWY7yQxVveT70POOhNLd8xMCmP0ziLZ/w+ftVxO/ijbC+pzxPQUe/6b7Znic8T9NzfMlPkDd+/vaEQR/qFeV9O65/Md9roMFe9vrtlsnzKrADjLnekQLYlax+dYkcGKgpXZELnR9Z1784jvU15Pn5yEzqJqxIjb6XibPK+r5kIB5u7i3fr0E27mpv9WFHpmSmH2HJLT+vRlb6cZbefvIyeSgfpsqT477+71uHokY00UH9zB3ps3xR+Q7rHzQuq3fk+Jfl6XtZ+YJEQFDeYzMn8H1P8qT/Vr5dCb7vSb6DfbDyHd05Kz/Q1zrJN9YHkZ8fW/8W0Lu08hEDYyufkUiy8hX3r5UfSNwY+R4x0LXyGYkYK988/XxrD/t8WNR35IWXG/HhIbxnr96ev8MJytSej4zne3ycnrd8uSoFG/q+S578saT+26iPE/wdeX2e6px3Q+L6hv7qspZJ5cnfyFeX5+/o0xflmZd8A30oav/HeHhQ7/hX4m8seTovmvKuYz5+4R154UWXPOlPf1iDm/dgor9rjDTvE/kd/1zed8kTAzAep9stnzB4NnmKJd/AP5/qj00maldAJRtyMvO6ABJRLcCgHRlV5WZBFYrRfIOCMU9MhtwqyO7GrFo9V1zAvI3E2guAj9TUT1wA5J6GUhiTHYk4H+f0C4As4zal5i8MMo35QWHfgI6x4TYWUQEUbKT7FV8ASMt3Pf7mQIJh7QdhVRYgwzuscLxlBZDBWPF1NI/UKSIzhNsCUG7tGTHfgIk2Y4XALSgg06EzNDs72avLt9F9ARDhtqJOiWsWwEnIFfNIjQ62dngkjOynklUbAKphc6IeoGiw7gG6su5zondRp7oLDqBFo60OIJ3egQAmk+QBjMswJ4YgrZktOvHMbf2aZpXIqWrTHFkTsx89PIKy1w1EAMM7LECCR+rpYSNejQCody8PnuHFzJC57/WR0XoBUA65d+WuFgBfeijbuwCU8lmxinjzzvkwDN2yAGTIVrSiprJjom6FK0O+Q+NHsq5DQ0bwGSC8AMjcD1MbsX0NWNanC/8CIPVePrZEedtfonewH+7OfJ3d1qDJvXlnvs6AO7v46oYSIGmkMTMeitvRtq43fOn1e5IN3H+T/kJWMm5yFcxaExvNkHpvP1jCVT6n13fV+HwgP7IAYox3QEnvYLKyS+FxWZv6rU7I/dyQLxwA5ny6OicjewDJyiw70mlZu3rGgzOaCzDlpQPyKtMk7BeAQpp581gvzBAxH9txfqt83VENUzO3ToxJRmBocmABiGybQ13pzYbxXxBzv049Z1lbVADxEwdAQQLkCIgfA2TMmR4ACQOOI8BRDQVEPBSPAKIlD4DgKZ8AllM3P/QX2sRo9wAYSJUeAJ2txglAJQEHQPM2kAKY1zgAykff4S61/KsAziAdAImt9wlAHNkBELGW4wAID572rwMoLWcBKxQkHtdavsrxw7atkinkzPcRgO6PBXRvA4m5rw2To4e/0DCbdACwK31Y1uruOAFwJecRQBmlg2pkDDgOgIQ59iPgY9a7cjn2ARAwjXMEOF9aAOWmzv864GNbtAxMzR8BnqmU4gt/A0mVcsPsyRFAIf40deu7voO1VdIJhSuPN4thKk6IGHzSHi8ASpFtOlZqQjglMqdSXiVhEcmTv30BUDy9ySFZ1ojM+pNNugEB2Z8NmApAQzaVX8qT1dsCBivfCYARuwV0Di3nIxfwAkDVsACuSz8AKhMhJwBlyw6AwuGABWRXNZoCnEfSIruERW1PKvMGRN7ThpDK3J80h2YHFgCplmEaarjQa9557hsw3NAyK4BKe7YxNtW1+OGGKWbt/B2G8t7JDTgkNZUar1I3y8ppztlNDbLjkXWt0Ni9NvQduuZQdpEoP5JkLZMTA3VTtMy14LNpwmLXiTJHJn0FuzCEWbhuAM4jSaHts1T0PUAVQPJoO+H5FgBduGaKx504rukZt8uFSJeaphN2Ep1Uo6mp3AVSZMiasnDJiRSbegJOZ+wRgBUnTSngyL1C9i8sAJII5qUXAIv4zbLGwTvuBEAGy7505wOlaXHEbszh/SBn3ALgd6jqhsaGhQXPrM8LAJkTk/GLlTmyalqwHLrI5HZjxXLUnVeSrrDCrINphI6OqSym85gr3KepatkdUAyQ3sKYsDJnFk0nxMiecVG7tNuNOHEk7fHRMTPZdOcFDvGzKh8n8Ze8ZteY9c6aG+Dk9K5ik4yL9/xyNnQO4bIWg3Q2w0kbEzo7GUkzd41Pz6SRemONSFqx0NjTS+oacsPvjKpAlW1RNIXlTB5G9W0LltZMM1CCG66n6X0rnE4Lqj+cjh6msDMjdTOGlixy9np01beMbNVopnEM3btRtfEkIRU7TOdr4hqFbKIjPPGH0eeEfPiuFFF5SozvbKo+D0UV3YS0CesZ+lALzZRq7+p/JDz2uhkwEvF79aoEEmf0+r2dnvJ0qu6cpQ4MoUqGnlQfItKEPWqgGfHQXvJR5ckedjPQg/m1NrWOLuB6tqH7K6B9a6amJ+D52EwJAw+o2UV3ZgAOldBVdbMC+kBL3gycobLbZnwmRz6rF+fKhw/9ftCCDVe+m9+n9Q/q/wQ8L1rQ/Rgwvm9BudOAfcO7jUv1jeji/fv6vsR4t6BsQED7ttdH3xf7jE0jZMBcS4ta7BjQPiz5pPpG/kwz/kzA83fJV/198k+2vPle/DxGnurmT89D/tXpfZ2BYGY9qWTx9L28/aj64MgbfaukDwd9pvPutF8y7xe7Hx37oOtDPOzJntB5erJXlLU+2UPcjwd7i/vxo/IH++/Id/P79Px32/JflDfEiGNPTGOdYw+bplUDEpfLfzD6j/owDvpD+mxK8AMOaOrBDgzEuRdB45GAibweD/ud/M+k5DT7b8sfjrr+1Ae85CVe4z7j5Z8PIWk5vqgajzPzveILJb0wC9m7pgciFm2t+Ega6iLWFXTTGRN5Louxhwn1f0Sthk3IXw3DzyTU591nYOJH2F8rHg/6PPS9dpeBPg+2AHS7PlRpO8x+T5hqGVP9+XRN4qOC5hAcUjYoP5nxPN38kspTj9Fu+1X+B5/ftA0WzoMmPS8K+iczaTq6cE2XGdBXufo1q7/Bw6c2HyuDRB45znf5YeUnyZ+ZWd+3MT+ZNb7unJgomsPlORyzKD/DnUub0ld+G/WhmEEBXP9p4mUn5VbUXk3m282ggMgO5SEPE7z0lo7zi1wOZKfzRd6TVXU0slGcVUmRyN32zybwFwBum6Zu6E5vOcnYqAB8h6bE6W52dxL7wgxWr3RAtmZ0agKb+uqxcbFON7lVp6eomwx05+3Q1Z3b6V6nDCUpAHN6/ZFJvQFOyvoEcMpQlHJ1bEA36V4nsW+dOqd0wPwFrzjhBMC82wlAA5fsKm3P+qMATC3ZR2Lfd5rZqilxYbCZdry9R/4O4u2nhPNtn324NyBzvq6rufccMJPASpkzfGaCRnJM5TApneL1dml1T2EzY6bDpOrV7hcD8MrYgwKcdjOdfNq8PsEZFIAtpPNQE4ilNGZGx/atuEZWh693DJanCQbT4O7iqdFm4hkdz/EXN4BHDMyp+azs1lvrxPPglU9LBLmLanmVhi3bpT09TY45I6kTQ1BW1qk9PiG4vPmE4ArqM4KKtE8IrgM/IbjU/Iwga3NCcMH8GYHj2A4It+xfJ+O7ii7Mlt+6ILXduznC2Rm2/YI3qxTj7AYP/gs6VtTpwZqmlccpY5vqahXnLJqGQKg4oH2aUcilulbWzGp17LiYZa8dyQKchifT6+C1VJ0AXlfLx9rCTgBsPDMAr7XtBMDmOQtw2vMswGkAPAGQjrIAdwMpwGmTNLrkNWJagNPqafaD10xqAU676gmADbEW4G8gAThNvSeA4wjpsjqNyfZLO63PBuA1V58AWC1rAU6DuAU4rQsnAMaMFuC00VuA06h/AiD/YAFO9bgFOOMMLMDpXzoBPvgOztAHC3DGSpwAWJRvAN5oDAtwhm+cAEhmW4AzQOQEcOItBThEqukN9casnAAYWVuAMyrGtNx6w2hMU6837sa0De+BOvwXpAqyd0/5NC0yvM5+rYOfHIoPTdQPrhyYQ8mvwaWc06Qq93Am5lCkVnePf6J36GZKc/aoWjv22gHoI1WmOZsZ7Ny8lipNOHXm46o2MQ6nZaMq6TKcltuiujS5KGwnwaTpJPIWzWZyZMLxgHumnJkBh969nTLnOLrRzDktWNkzTWXzs0HpDAha2jC5F2PPlKsKwOID0/q8AFjd33U0xk6MUbmF6T7d+kv1HFWj3b1D6B2KGZzNGeRhJ3h2VL5lhfSlmQAa5hLUZ3/2EbBttRn5SQHHPj6mAqhRf59oVQF0oHTTPLfPJC6E0hnSk98haibCmQbbTSnj5oOoNtQ4J5tx4uJ9nU05sXuoNTMHm8fgN6veEy+0tGN8X6i/M8JMCnYRZhixh7Dzjl2EGansIszUZhdhBkN7iDI1dzv52rBiUuLO99vzs41KkUddzB16GwDvkA2LupUWjol80nLqacxmIsBkrjkX04Q6+TYte1zz9Sj5ZDzobMymbvo5wOgISCbftud+0Ij7bmZPD4z0k3HM9jHBl8PqX+jo7z4vE34BUJT8bM56AVB0Fqf5cHzvWzRzRJwxzNHcRDf55pZdZ2MulSAXPGbjQXAhTUwabM3KOaRo3qHgyRWDJgl2nRn5iidnlNxd44BnptfNMHnOMA4zVt0pOzWfIGGlkb1/IqLj2s31E5HbLEzVXUBSumqubMmTX1x12+y6W7wuSHbN4CHy5hr1XQdMh4i5Jpn5t6QzMYZzJYlebzkaBq1J9W1w5Vk061Od6wmFIxo8nCia9az4fU0X0wpT+HoznaqQkYIKyu6PhG5I0CrYwdeXmutd3evKJBvtXoem8t51ayrvXecm8u51cSrvXUen8t51dyrvXaen8t51fSLvXgeo8t51g1aerzNUee+6RJX3rmO08nzdo8p710laeb6uUuW96zDFnrjXbUr5sXudp9R+7etCUf8lAqzcRhPMFBJuMzL3suxUOK6nThh2r6uUwpCJzrq5s7sM9KSjVhzu62zxukS9XrfxNeWmEqbyBVzKMDlVJ8nUkLC/Z25yK4kDB+XU9nXIcL5nU3zBtRRZ/ck80UU3rEnm28OK1g7vGi+6R8uMsWyYlDK0z65sg/c1/QkrpEaayHRJcdWFuZpjVwzy9Y2mJDERV6ddxJnHigz1N/b9bygvU3sS827DTK+caE/M6OE0uO3MTDQcXEdgylQ7Z0y0q/l5Afx78eDb9XeKhaM5APYcKgboG1ccnLFDWvlk3N8Sg/J/zqioBdCZppmvnzRh+W5epKghmjryxNdPmrhktxjQOWOohcT3zUQTWTkDOmJSXityIUQ0tjoOzJfsOX7SEMMz2WIx3HBDax2LJrpixeNst1IJi14wBxrtwMTMH65qenwvNC1rM4OdEprs2PQ61hj5w3UzCopnz8SuvZjMCy89UJaKVW+o18U1O3EqC8OtW8/RB095dFqCpt06869RWaSGSpSiDuFnEiMlzRAziWG9tIrF70/r9pSnQyqZ2ZA8289eal3QCdyt0CpPSf19wujsPSINUtMNkDFJuj6/JNwzHspLfSW5nXHWRbKNHVjuvn0mOQwwObV9OJWn82+naXQ2AJEe2cwe48HQ2XZRIWlcTFQZ8ewr5irBiKRBMbMcuD+hVNM7ikH3Tg7q7D1qoixDD8qAVcPVsH5cDltNiUrAAt2aVZ8DkqK1qCvBs15q0/v9ePZ/Nd3BXC9czc14Aa81raaOL6D9aYYVdWahmVmnziwxY/9deRk/7MwKSho1Bazwbklddme2ULKzpsidbmYWizP7KmlFIc8iOsrT9zo8D87eO7wv1Tad1pPOx9P3wlllB30gf+Ckbzj7zZVf//DHT9+//PiXX3797bc/v3/7+s/Pr///l6/fPv/j29d//f7z/Z/+/PLTH5/Xv/0v);lineShape=1;" parent="1" vertex="1">
                    <mxGeometry x="619.2223708033885" y="11.93691143032288" width="221.54712645323588" height="542.216857032382" as="geometry"/>
                </mxCell>
                <mxCell id="54" value="n" style="endArrow=open;html=1;endSize=12;startArrow=diamondThin;startSize=14;startFill=1;edgeStyle=orthogonalEdgeStyle;align=left;verticalAlign=bottom;entryX=-0.011;entryY=0.096;entryDx=0;entryDy=0;entryPerimeter=0;exitX=-0.011;exitY=0.096;exitDx=0;exitDy=0;exitPerimeter=0;" parent="1" source="10" edge="1">
                    <mxGeometry x="-1" y="3" relative="1" as="geometry">
                        <mxPoint x="380" y="130.5" as="sourcePoint"/>
                        <mxPoint x="220" y="130.5" as="targetPoint"/>
                    </mxGeometry>
                </mxCell>
                <mxCell id="74" value="Paciente, usuÃ¡rio e dentista ~&amp;gt; Independentes&lt;br&gt;&lt;br&gt;EndereÃ§o e horÃ¡rio ~&amp;gt;subdocumento&lt;br&gt;&lt;br&gt;Consulta ~&amp;gt; populate" style="shape=note;whiteSpace=wrap;html=1;backgroundOutline=1;fontColor=#000000;darkOpacity=0.05;fillColor=#FFF9B2;strokeColor=none;fillStyle=solid;direction=west;gradientDirection=north;gradientColor=#FFF2A1;shadow=1;size=20;pointerEvents=1;" parent="1" vertex="1">
                    <mxGeometry x="950" width="140" height="160" as="geometry"/>
                </mxCell>
                <mxCell id="75" value="Exames" style="swimlane;fontStyle=0;childLayout=stackLayout;horizontal=1;startSize=26;fillColor=none;horizontalStack=0;resizeParent=1;resizeParentMax=0;resizeLast=0;collapsible=1;marginBottom=0;" parent="1" vertex="1">
                    <mxGeometry x="280" y="220" width="140" height="78" as="geometry"/>
                </mxCell>
                <mxCell id="76" value="_id: ObjectId" style="text;strokeColor=none;fillColor=none;align=left;verticalAlign=top;spacingLeft=4;spacingRight=4;overflow=hidden;rotatable=0;points=[[0,0.5],[1,0.5]];portConstraint=eastwest;" parent="75" vertex="1">
                    <mxGeometry y="26" width="140" height="26" as="geometry"/>
                </mxCell>
                <mxCell id="77" value="nome: String" style="text;strokeColor=none;fillColor=none;align=left;verticalAlign=top;spacingLeft=4;spacingRight=4;overflow=hidden;rotatable=0;points=[[0,0.5],[1,0.5]];portConstraint=eastwest;" parent="75" vertex="1">
                    <mxGeometry y="52" width="140" height="26" as="geometry"/>
                </mxCell>
                <mxCell id="81" value="n" style="endArrow=open;html=1;endSize=12;startArrow=diamondThin;startSize=14;startFill=1;align=left;verticalAlign=bottom;entryX=0.424;entryY=1.113;entryDx=0;entryDy=0;exitX=0.432;exitY=-0.03;exitDx=0;exitDy=0;exitPerimeter=0;entryPerimeter=0;" parent="1" source="75" target="14" edge="1">
                    <mxGeometry x="-0.9978" y="-11" relative="1" as="geometry">
                        <mxPoint x="570.4200000000001" y="205.20000000000007" as="sourcePoint"/>
                        <mxPoint x="309.9999999999998" y="199.99999999999991" as="targetPoint"/>
                        <mxPoint as="offset"/>
                    </mxGeometry>
                </mxCell>
                <mxCell id="82" value="" style="shape=stencil(lZzJkh3HDUW/htuKnIe1LP+HIkSZDNOkgqI8/L2Rpqu66+K9k+xd8xGoygEJXFwg613+6Y8Pv/z+/l0Kf3z7+uXv7//18ddvH97lv7xL6ePnD++/fvxmf73LP7/LP/325ev7v3398ufnX7//+/dfluT66x9f/rme8O/vejEdoS6tFP7z/Zd6zP6/H/76Xf7Tx8+v5eNR+k2+HXOCfDhmusmPIzeUr/MmP4/Gz0/jJm8jDAUV/v/fl0I6cn6uMI8hL8hHhRWaR5fnl6PDjOdR7wsU21ECyad8lx9His/lx/n2S55X1PbnvgEpHhHGP45wH39Kx6jP5fvR412+HA3m2492n69ZXIL170cNd/lxRJSP9+fncJT0XN7sXeTj0VBe5pvTMWG+Tcefy5Hw+em+X7keFey56X5lmxHYTz3G3X6yrSfYTz3a3aEUW084kPXId4dS0lFgPOUY9/mWctRB8kXk2zHAHsqR7+tfzMJRPor8PDLYfz7m3T/UcHqMJ/Ljvl/VXDbMNx/9vp41b8Yj/qraecTxqPxlIc/kJcCwv/LyE/2hk2/haG95fotvG3/LaA9u/Vs9LerZ/t7tp/Uj4/6O+/q3eUScr5yXHjB+ZfVvPWFANfm7f+j5KGz/Mp7rRD85X+HuP3tDe7bzeN+vbhEH/YP4n27rifLjPp4R0N/W03oveYsXsP5N5zvS0WF92jm7Sz6jP+9OvmI8HYp/hr0R5rsA1n1BxzghyzNIGQUiGiYijBhPiHphxMAgMakPnfE8pY8VioKCmY9EQ6qnzV8Kl109VugO59YTyT5USOEcwKVwWcpjBee4TIEMb0XuoAoTTpqZUpFV6nh0DFn1oAqFfJE7zKaAzsvWZDoFMA0DM9kNqYG1GpppySmAaRQLF/4N5PCqInBT6IAAy/W81wo0h+lMgxVqVFC3GZJhCEGNm0nX7o4o77RF+e7eQJmlhe1cVCHAHCxuSyS381BJwYCxvKGezvOxK44PFAjbWagUsD8LgguLffEeTcyRVYjmFvx0WROahkWnKEOKGM9H0YTXvPekBLPpPlh8II7C4k2NqkAQaT1PYvRAR2ZTTPfzMPrpeB4rpHPVX0VdOkC2TeIqN2F9ujxn4QziEcoJK14BmcQK844E+kBkZcbsoRhBjRUC76vU6+mpnilkAYflBBNPFWRICbHGdPDN4DPRG0vhPiTD55k2rp50w6sEYDPpIhlAO/3IUwVJYewMbt5wdwIt4YkzBTnTllSRM14Kd+OzLG+Q8VWlUSyN3CzrkDzY8n7i+RwxUq9leKYQ7+ehXlzAMwWJQJbKoxNo6sgsEFPusxCezCGwX3LsVNmc6abpv6GPSvvQFGuUhvzRdO6+bAhUlwEZ5ELTaOr5SuQz3TRHNxSYeeMEzRjORPO+bPNS6KcvfKogtFxld9/0PBi4DhuF+7LmhETeA4WATJtXSJO9hltWS0GIS/XGlzbkelOga1lRYK9RhZ6+CJqnXuO+Dymeof6p53MEPhFWPiiuCgGd6aKTjo1tKbuaSEHOzRTEt1pKTqSJ4SVBxjGwM45nEedCM8jKL8ZAaK6zEPYMIkqOVRGOjavMdbkMzKVfSJUX+Uiwu+j4M66PwXQJuMxiWh4gNHU6ea9niUZSeUobDNjF9hb5q6j0g/LhjKw/Nn7L3bTMdPKgj+Ud0ZCRJTUAJSEkn+D4WXqrAQGrQNWV+TImhgaGBHVm5KtqdvEG7c2AStLxUzpvsMPNl6oixfndq67yWL4oji+ImUtSkM2J9qKFVB5Z8K4cZsEoYNG96/gJsuSs61PQX+V4BOevYH3MvYr9FEziF62t459Ed7qyRUW0kpKW9SuSOxZDhU6tmPHHrhl/xa6BmB0SR/9j8XDq8wk7mXzS9SGAGaPaT0VeNDqGozIBHrw9E0hZ8pJ4YNU9OvvM3HcSNQ3PiAdWTUH9SaY2kos2eOXPyX6y94fUVWHyCtcRw8Xi/TnxfCavGQqydvGCwa/8IdlzVcRXkNRY41H7pK4Nk89q/5SGrvXMIk9JZcwuud+dR03VMQ2I0fs3Ks6YfNbxUJX4pQvqx/zno/NI8XrJSw6NeHX5E0kOMb4vf1VEHv1DUm6F8dKb5V1xLLH9dJfbck1zqv9MiK98vEvngfjBeJpwPX285uTf4wEev8cbiSuB2bV1nT88w0tV14dqN4bH3P7SeAzvJd0v8oeGJ918iQUrWfFAwvzU8LA8n7taDG9LfOQutur8Q0T/Y/lCFU4B411tmvAHzJct3ykqj10SQf1zwC4ny9fKEHmyt1bUHgKuT+saXwLyfauIkEWe/G2Pmo8E5LF60T7ggPGiN833A3YjdNdWGjBfHkF7CwJ3oTo8FjCfHUXxVUDee3Rdz4j2MMMZTl75H+LgHOGVsXS86oOKZ8hfzSucv/BdZD+rFCfVwR2XK4VmQwgDHMpsCiBWCkQMX1cEtzAmFRKGHuHY+A3DDWkgSJlTQU0KXAyZ6hWXWdCyzrO35BW9jMXB6XgvJh6XgsyhYeZjCsrEda6euOr6juZ3CrtCglfYlCqmRrNdMWTqNYZduWVq/N4VdKb2Ue5KRg4x7opS00F2LnvFEBxpw5W1RxqFO+0eaDTsD34w784lfLfZi2wkxzFdLhowOVinVMiSyOWNqQX2mnZDEnhRC7dSzLOR6FKoXBAZLiFtyNCZgniahclo0uOMgJfC5GPt+nha5OrdeGvfwnC3mTadES6m7HovhuYtu+4OP+lN/8jQ3otdh8pQqLTrgXEb15k8N4UmbTkV0flSkC6bjunsGpKU7waHOZfvjE1BcZzNUJdC4hDRFVGOzGCgKyQe20YH4dRW1xn3hAlpNAZWzQyFaicppw2rde/+hhmxB8YGIM548nWW0dT4VjGZ+wuFGbFlwDdE7QmbXJvo7sStZiMudvrOarzz5rKZZSzUDTtdV/LAfKk5+L0CAMSHVrRLf/I9J/PV2kPPFw9rd0PiRocHTcYXTHus4NuYJ2ZZDxqlOWQ9aMXeKPhm78nXYXw7+cTK3oOG9YmlPcOdyQ2Jomh23NML1HysUPSKyCsY+FgjKV2ye0XQ+tVSgDOaXFPYMldiPN1FoIXqSMG1AJgCcYCWTMpVrzlwq+PQELTiJFd1hNVYff2kkBVWvjTTPePx/T0XVHDEz2pPwvvTevMmI4QbzgdcVN9jX+xuAUTEY+3B5aRETsm1YQ8EiMV1kne0ouz6witmZI74tIBKfj66ZnumNIK7PxexOT8o8dknMm9BiSiDkoQMXf65uV8YFIRt7i8GJVY39yODnrDN/cugcXlzvzNo/+Hm/mg4s/FXCQwx20GJ4c39V3evbXO/1stzpcPL8/1gJ7+5f+wKQZv7zcE1blRM14JeUFv3s8GfBO3+rNwJFhT9GkoiljRo4aUGxLJB/ZWBKkoe3R1Bw1RUSQ8a80rjTg/X6FTxewNRwb4hMKx0K1NYIkd5RTZ5gwrUHgyv4T1Qjaf56nF+Iq+NpRXjXVL+OJfNeJRJtTfifXfxn5krj1nz9syVo6ycUeqMdjU1W1/gAHvLrrGU46m7f792EO/Hiz9JAVmEorRdnJixu0bd1dqA3wsRPBAbxpfqyjqFK61qD5E56abnZX3yCPbruiT9kpugP+n6/Y+JjXLdUWO4msNd3eI7etqVXPmujdavCtOlzpUzq6fpeUHHE13JtHDLTFBWpXDLm+OqNi1OUVuEyq5FS798wy2fUatWmxatpFlz5e8qJD25XCJe8tryiR96eOunw7by9sfLd8p++/jp0/fPnL3+f/2umf30/Zto+ef/Ag==);lineShape=1;" parent="1" vertex="1">
                    <mxGeometry x="254.5571190906394" y="20.40626187587668" width="200.0953394253403" height="304.9637409973556" as="geometry"/>
                </mxCell>
            </root>
        </mxGraphModel>
    </diagram>
</mxfile>